<svg width="75" height="73" viewBox="0 0 75 73" fill="none" xmlns="http://www.w3.org/2000/svg">
<g clip-path="url(#clip0)">
<path fill-rule="evenodd" clip-rule="evenodd" d="M51.9348 40.44V35.1508C52.1667 34.1275 52.5879 33.8269 53.0701 33.731C54.3762 33.5199 54.2297 40.1266 51.9348 40.44ZM54.9255 25.1032L54.7058 16.5842L41.3391 20.6327C40.1367 20.9077 38.9465 21.042 37.7808 21.0484C36.5295 21.0548 35.3027 20.9077 34.0942 20.6327L21.3257 16.5458V25.1864C21.3684 25.7364 21.5942 26.2353 21.9543 26.6958C21.582 27.7318 21.698 28.915 22.4548 30.2325C22.4182 30.8593 22.4304 31.4797 22.5159 32.0873L23.23 32.5094V33.2577C22.9126 32.874 22.5281 32.6501 22.1069 32.567C21.2341 32.3943 20.6238 32.9059 20.2759 33.8333C20.1172 34.2554 20.0134 34.7799 19.9707 35.3491C19.9341 35.8799 19.9463 36.4683 20.0073 37.0631C20.2332 39.2248 21.1792 41.4889 22.9431 41.7575C23.0408 41.7767 23.1384 41.7767 23.23 41.7575V42.2692C23.23 42.3331 23.2361 42.4035 23.2483 42.4674C24.0051 46.2409 26.9958 49.2085 29.7424 51.594C36.1328 57.1391 43.4937 54.7023 47.9736 49.8033C50.4333 47.1107 51.9592 45.096 51.8433 42.0709C51.8433 42.0581 51.8433 42.0453 51.8433 42.0325V41.7575C51.9165 41.7639 51.9897 41.7639 52.0691 41.7511C53.8269 41.4825 54.7791 39.2248 55.0049 37.0567C55.072 36.4619 55.0781 35.8735 55.0415 35.3427C54.9988 34.7735 54.895 34.2554 54.7363 33.8269C54.4128 32.9763 53.8757 32.4774 53.1067 32.535L54.0588 31.9082C54.0649 31.7803 54.071 31.6588 54.0771 31.5373C54.5593 30.0343 54.4739 28.7104 53.9612 27.5528C54.0955 27.4249 54.2053 27.2969 54.2847 27.1626C54.6326 26.587 54.8401 25.9027 54.9255 25.1032ZM25.2869 28.8575C29.3213 30.4884 35.321 31.1088 37.7563 31.2303C39.6973 31.3262 45.3064 30.6866 49.4934 29.529C49.8718 30.1622 50.1892 30.8465 50.4395 31.582H50.4272V42.0325C48.645 52.304 37.4146 58.2775 27.8748 47.9165C25.6958 45.6844 25.2441 45.8252 24.5361 42.2628V30.8209C24.6765 30.1238 24.939 29.4651 25.2869 28.8575ZM60.3394 10.4444V20.8565H60.6567C60.8704 20.8565 61.0474 21.042 61.0474 21.2658V24.0671C61.0474 24.291 60.8704 24.4765 60.6567 24.4765H60.3394V25.455C60.7361 25.5317 61.0413 25.9027 61.0413 26.344C61.0413 26.8365 60.6506 27.2458 60.1807 27.2458H58.6365C58.1604 27.2458 57.7759 26.8365 57.7759 26.344C57.7759 25.9027 58.0811 25.5381 58.4778 25.455V24.4765H58.1665C57.9529 24.4765 57.7759 24.291 57.7759 24.0671V21.2658C57.7759 21.042 57.9529 20.8565 58.1665 20.8565H58.4778V11.052L42.2119 16.354C39.2639 17.0895 36.322 17.1342 33.374 16.354L15.4236 10.7386L13.8 10.2333C11.7798 9.36992 12.2864 7.33611 14.1663 6.86283L34.4727 0.511943C36.5662 -0.114831 38.6597 -0.210766 40.7532 0.511943L60.6934 6.78608C62.8601 7.33611 63.2874 9.44028 60.7666 10.3037L60.3394 10.4444ZM27.3438 54.5808C31.0852 62.166 43.3838 62.4666 47.6562 54.5808C51.3245 58.0409 64.2517 58.738 68.2922 61.098C69.5679 61.8463 70.7275 62.7992 71.6553 64.0784C74.7009 68.2867 73.938 68.0564 75 73.0003H0C1.12915 67.7559 1.64185 64.0272 6.70776 61.098C12.0911 57.9577 23.053 58.6292 27.3438 54.5808ZM40.509 33.7182C39.5142 34.1147 39.3005 34.9845 39.856 35.3107C40.509 35.6944 41.3391 35.1188 41.9739 34.9078C43.6401 34.3513 45.6238 34.2874 47.0642 35.234C47.4487 35.4834 47.8394 35.8096 48.2361 36.2061C48.0896 35.6561 47.8577 35.1508 47.522 34.7031C46.0876 32.778 42.4438 32.6693 40.509 33.7182ZM34.2102 33.7182C35.2051 34.1147 35.4187 34.9845 34.8633 35.3107C34.2102 35.6944 33.3801 35.1188 32.7454 34.9078C31.0791 34.3513 29.0955 34.2874 27.655 35.234C27.2705 35.4834 26.8799 35.8096 26.4832 36.2061C26.6296 35.6561 26.8616 35.1508 27.1973 34.7031C28.6377 32.778 32.2754 32.6693 34.2102 33.7182ZM29.0161 37.4596C28.8025 37.5492 28.5706 37.4085 28.4912 37.159C28.418 36.9032 28.5339 36.6218 28.7476 36.5387C30.3955 35.8671 32.074 35.9119 33.728 36.5387C33.9417 36.6218 34.0637 36.8968 33.9966 37.1526C33.9294 37.4085 33.6975 37.5492 33.4839 37.4724C33.2092 37.3701 32.9346 37.2806 32.6599 37.2166C32.6904 37.3189 32.7026 37.4277 32.7026 37.5428C32.7026 38.2079 32.1899 38.7516 31.5491 38.7516C30.9143 38.7516 30.3955 38.2079 30.3955 37.5428C30.3955 37.3765 30.426 37.223 30.481 37.0823C29.9805 37.1335 29.4861 37.2678 29.0161 37.4596ZM42.3096 37.5236C42.3096 38.1887 42.8284 38.7324 43.4631 38.7324C44.0979 38.7324 44.6167 38.1887 44.6167 37.5236C44.6167 37.3317 44.574 37.1526 44.5007 36.9928C45.0012 37.0503 45.5139 37.1654 46.0205 37.3381C46.2402 37.4149 46.4661 37.2614 46.5271 36.9991C46.5881 36.7369 46.46 36.4683 46.2463 36.3916C45.4163 36.1038 44.5862 35.9631 43.7561 35.9695C42.9321 35.9695 42.1082 36.1166 41.2964 36.398C41.0767 36.4747 40.9546 36.7433 41.0156 36.9991C41.0767 37.255 41.3086 37.4085 41.5222 37.3317C41.803 37.2358 42.0898 37.1526 42.3828 37.0951C42.334 37.2358 42.3096 37.3765 42.3096 37.5236ZM36.0718 43.9832C35.8459 43.7849 35.8154 43.4332 36.0046 43.1965C36.1938 42.9599 36.5295 42.9279 36.7554 43.1262C37.0239 43.3628 37.2803 43.4907 37.5244 43.4907C37.7686 43.4971 38.0371 43.3756 38.324 43.1262C38.5498 42.9279 38.8855 42.9663 39.0747 43.2029C39.2639 43.4396 39.2273 43.7913 39.0015 43.9896C38.5132 44.4117 38.0127 44.6164 37.5122 44.6036C36.9629 44.5908 36.4868 44.3478 36.0718 43.9832ZM34.3994 47.6159C34.1248 47.4624 34.021 47.1043 34.1675 46.8229C34.314 46.5351 34.6558 46.4263 34.9243 46.5798C35.791 47.0595 36.6394 47.3026 37.4756 47.3089C38.3118 47.3089 39.1479 47.0723 39.9902 46.5862C40.2649 46.4327 40.6006 46.5351 40.7532 46.8165C40.8997 47.0979 40.802 47.456 40.5335 47.6159C39.5264 48.1979 38.5132 48.4857 37.4817 48.4794C36.3892 48.473 35.3577 48.1468 34.3994 47.6159ZM23.0713 40.44V35.1508C22.8394 34.1275 22.4182 33.8269 21.936 33.731C20.636 33.5199 20.7581 40.1202 23.0713 40.44Z" fill="white"/>
</g>
<defs>
<clipPath id="clip0">
<rect width="75" height="73" fill="white"/>
</clipPath>
</defs>
</svg>
